<svg width="78" height="78" viewBox="0 0 78 78" fill="none" xmlns="http://www.w3.org/2000/svg">
<g clip-path="url(#clip0)" filter="url(#filter0_d)">
<path d="M72.4614 33.4715C72.4576 14.9819 57.4656 -0.00373771 38.9754 6.99302e-07C20.4858 0.00373911 5.50017 14.9963 5.50391 33.4859C5.50711 48.0502 14.9252 60.9413 28.7995 65.3713C28.9319 65.413 29.0697 65.4343 29.2081 65.4338C29.4719 65.4333 29.7304 65.3628 29.9573 65.2287C30.2527 65.0541 30.4732 64.7764 30.5768 64.449L39.0315 37.6521C41.3429 37.6404 43.2068 35.7568 43.1945 33.4459C43.1827 31.1345 41.2997 29.2706 38.9883 29.2824C38.3666 29.285 37.753 29.4282 37.1944 29.7011L26.0251 18.5302C25.4707 17.9951 24.5879 18.0106 24.0528 18.5644C23.5305 19.1054 23.5305 19.962 24.0528 20.503L35.2162 31.6792C34.3596 33.4277 34.8493 35.5383 36.3895 36.7303L28.3338 62.2647C12.4135 56.4002 4.26169 38.7405 10.1262 22.8203C15.9907 6.90002 33.6503 -1.25183 49.5706 4.61266C65.4909 10.4771 73.6427 28.1374 67.7782 44.0571C64.913 51.8351 59.0261 58.1252 51.4548 61.4989L50.5842 57.3989C50.4251 56.6454 49.6844 56.1636 48.9308 56.3233C48.6931 56.3741 48.4726 56.4857 48.291 56.6475L39.8978 64.1409C39.322 64.653 39.2708 65.5347 39.7835 66.1105C39.9501 66.2974 40.1637 66.4362 40.403 66.5126L51.1188 69.9327C51.8521 70.1682 52.6377 69.765 52.8732 69.0312C52.948 68.7994 52.9603 68.5527 52.9101 68.3145L52.0545 64.2915C64.4452 59.0678 72.4902 46.918 72.4614 33.4715ZM38.9829 32.0766C39.753 32.0766 40.3779 32.7014 40.3779 33.4715C40.3779 34.2422 39.753 34.8665 38.9829 34.8665C38.2123 34.8665 37.588 34.2422 37.588 33.4715C37.588 32.7014 38.2123 32.0766 38.9829 32.0766ZM43.5774 64.5916L48.3551 60.3298L49.6737 66.543L43.5774 64.5916Z" fill="#212121"/>
<path d="M37.5879 6.96735V9.75726C37.5879 10.5279 38.2122 11.1522 38.9828 11.1522C39.753 11.1522 40.3778 10.5279 40.3778 9.75726V6.96735C40.3778 6.19724 39.753 5.57239 38.9828 5.57239C38.2122 5.57239 37.5879 6.19724 37.5879 6.96735Z" fill="#2196F3"/>
<path d="M12.4789 32.0765C11.7083 32.0765 11.084 32.7014 11.084 33.4715C11.084 34.2421 11.7083 34.8665 12.4789 34.8665H15.2689C16.0395 34.8665 16.6638 34.2421 16.6638 33.4715C16.6638 32.7014 16.0395 32.0765 15.2689 32.0765H12.4789Z" fill="#2196F3"/>
<path d="M65.4866 34.8665C66.2573 34.8665 66.8816 34.2421 66.8816 33.4715C66.8816 32.7014 66.2573 32.0765 65.4866 32.0765H62.6967C61.9266 32.0765 61.3018 32.7014 61.3018 33.4715C61.3018 34.2421 61.9266 34.8665 62.6967 34.8665H65.4866Z" fill="#2196F3"/>
</g>
<defs>
<filter id="filter0_d" x="0" y="0" width="78" height="78" filterUnits="userSpaceOnUse" color-interpolation-filters="sRGB">
<feFlood flood-opacity="0" result="BackgroundImageFix"/>
<feColorMatrix in="SourceAlpha" type="matrix" values="0 0 0 0 0 0 0 0 0 0 0 0 0 0 0 0 0 0 127 0"/>
<feOffset dy="4"/>
<feGaussianBlur stdDeviation="2"/>
<feColorMatrix type="matrix" values="0 0 0 0 0 0 0 0 0 0 0 0 0 0 0 0 0 0 0.25 0"/>
<feBlend mode="normal" in2="BackgroundImageFix" result="effect1_dropShadow"/>
<feBlend mode="normal" in="SourceGraphic" in2="effect1_dropShadow" result="shape"/>
</filter>
<clipPath id="clip0">
<rect width="70" height="70" fill="white" transform="translate(4)"/>
</clipPath>
</defs>
</svg>
