<svg width="18" height="13" viewBox="0 0 18 13" fill="none" xmlns="http://www.w3.org/2000/svg">
<path d="M15.56 0.686035H2.32761C1.48566 0.686035 0.800781 1.32682 0.800781 2.11454V10.6855C0.800781 11.4733 1.48566 12.114 2.32761 12.114H15.56C16.4019 12.114 17.0868 11.4733 17.0868 10.6855V2.11454C17.0868 1.32682 16.4019 0.686035 15.56 0.686035V0.686035ZM15.56 1.63836C15.6291 1.63836 15.6949 1.65179 15.755 1.67523L8.94379 7.19846L2.1325 1.67523C2.19264 1.65182 2.25842 1.63836 2.32757 1.63836H15.56ZM15.56 11.1617H2.32761C2.0468 11.1617 1.81865 10.9483 1.81865 10.6855V2.68137L8.61029 8.18845C8.70622 8.26609 8.825 8.3047 8.94379 8.3047C9.06257 8.3047 9.18135 8.26612 9.27729 8.18845L16.0689 2.68137V10.6855C16.0689 10.9483 15.8408 11.1617 15.56 11.1617V11.1617Z" fill="#757575"/>
</svg>
