<svg width="11" height="16" viewBox="0 0 11 16" fill="none" xmlns="http://www.w3.org/2000/svg">
<path d="M8.86626 0.665894H1.74116C0.899229 0.665894 0.214355 1.30667 0.214355 2.09439V14.4747C0.214355 15.2625 0.899229 15.9032 1.74116 15.9032H8.86626C9.70819 15.9032 10.3931 15.2625 10.3931 14.4747V2.09439C10.3931 1.30667 9.70819 0.665894 8.86626 0.665894ZM1.74116 1.61823H8.86626C9.14707 1.61823 9.3752 1.83167 9.3752 2.09439V12.0939H1.23223V2.09439C1.23223 1.83167 1.46035 1.61823 1.74116 1.61823ZM8.86626 14.9509H1.74116C1.46035 14.9509 1.23223 14.7375 1.23223 14.4747V13.0462H9.3752V14.4747C9.3752 14.7375 9.14707 14.9509 8.86626 14.9509Z" fill="#757575"/>
<path d="M2.61008 13.662C2.80885 13.848 2.80885 14.1496 2.61008 14.3356C2.41131 14.5216 2.08906 14.5216 1.89029 14.3356C1.69152 14.1496 1.69152 13.848 1.89029 13.662C2.08906 13.476 2.41131 13.476 2.61008 13.662Z" fill="#757575"/>
</svg>
